<svg id="Capa_1" enable-background="new 0 0 512 512" height="512" viewBox="0 0 512 512" width="512" xmlns="http://www.w3.org/2000/svg"><path d="m311.391 264.408c-18.197-11.846-37.089-22.743-55.195-34.805-21.788-13.843-42.684-28.874-58.409-47.534h116.497c-9.009 10.69-19.64 20.246-31.254 29.013 18.961 12.072 35.569 21.955 52.504 33.472 61.978-55.552 79.863-119.762 55.662-200.048-4.242-14.105-9.922-29.138-17.095-44.506h-66.961c6.01 10.944 10.871 22.178 15.187 32.069h-132.508c4.299-9.899 9.109-21.116 15.095-32.069h-66.914c-7.141 15.255-12.883 30.398-17.111 44.506-27.158 90.396-1.831 160.254 79.79 219.902 17.42 12.905 49.923 32.968 55.225 36.006 18.746 11.479 34.53 21.619 47.437 31.655h-94.761c5.806-4.523 12.096-9.058 19.114-13.733-13.967-8.718-49.814-34.008-52.467-36.057-54.534 41.653-94.977 102.924-32.862 229.721h67.623c-5.521-10.36-10.236-20.838-14.575-29.931h121.276c-4.352 9.093-9.075 19.571-14.608 29.931h67.317c71.725-146.083 7.313-204.914-58.007-247.592zm-132.67-202.339h154.856c3.195 10.633 5.392 20.638 6.57 30h-167.969c1.174-9.36 3.36-19.363 6.543-30zm-7.208 60h169.122c-1.152 10.933-3.913 20.826-7.764 30h-153.71c-3.822-9.159-6.512-19.074-7.648-30zm158.253 330h-147.462c-4.213-10.968-7.299-20.909-9.313-30h166.038c-2.007 9.101-5.041 19.021-9.263 30zm-159.3-60c.868-11.179 4.103-20.989 9.597-30h151.849c5.539 9.027 8.871 18.827 9.758 30z"/></svg>