<?xml version="1.0" encoding="UTF-8" standalone="no"?>
<!-- Created with Inkscape (http://www.inkscape.org/) -->

<svg
   width="75mm"
   height="25mm"
   viewBox="0 0 75 25"
   version="1.1"
   id="svg5"
   inkscape:version="1.2.2 (b0a84865, 2022-12-01)"
   sodipodi:docname="optipyzer.svg"
   xml:space="preserve"
   xmlns:inkscape="http://www.inkscape.org/namespaces/inkscape"
   xmlns:sodipodi="http://sodipodi.sourceforge.net/DTD/sodipodi-0.dtd"
   xmlns="http://www.w3.org/2000/svg"
   xmlns:svg="http://www.w3.org/2000/svg"><sodipodi:namedview
     id="namedview7"
     pagecolor="#ffffff"
     bordercolor="#000000"
     borderopacity="0.25"
     inkscape:showpageshadow="2"
     inkscape:pageopacity="0.0"
     inkscape:pagecheckerboard="0"
     inkscape:deskcolor="#d1d1d1"
     inkscape:document-units="mm"
     showgrid="false"
     inkscape:zoom="2.4134708"
     inkscape:cx="209.44939"
     inkscape:cy="137.56122"
     inkscape:window-width="2560"
     inkscape:window-height="1387"
     inkscape:window-x="0"
     inkscape:window-y="846"
     inkscape:window-maximized="0"
     inkscape:current-layer="layer1" /><defs
     id="defs2" /><g
     inkscape:label="Layer 1"
     inkscape:groupmode="layer"
     id="layer1"><text
       xml:space="preserve"
       style="font-weight:bold;font-size:12.7px;line-height:1.25;font-family:courier;-inkscape-font-specification:'courier Bold';letter-spacing:-0.264583px;stroke-width:0.264583"
       x="15.82221"
       y="16.462967"
       id="text2192"><tspan
         sodipodi:role="line"
         id="tspan2190"
         style="font-style:normal;font-variant:normal;font-weight:bold;font-stretch:normal;font-size:12.7px;font-family:Arial;-inkscape-font-specification:'Arial Bold';stroke-width:0.264583"
         x="15.82221"
         y="16.462967"
         dx="0"><tspan
           style="fill:#65a30d"
           id="tspan3395">Opt</tspan><tspan
           style="fill:#075985"
           id="tspan3399">ipy</tspan><tspan
           style="fill:#ef4444"
           id="tspan3401">zer</tspan></tspan></text><g
       id="g3373"
       transform="matrix(0.0254778,0,0,0.0254778,3.1410981,5.0538203)"><path
         d="m 279.21094,357.44141 c -1.97657,0 -3.95703,-0.75391 -5.46875,-2.26563 L 156.27734,237.71094 c -3.01953,-3.01953 -3.01953,-7.91797 0,-10.94141 3.02344,-3.01953 7.92188,-3.01953 10.94141,0 l 117.46484,117.46484 c 3.01953,3.01954 3.01953,7.92188 0,10.94141 -1.51172,1.51172 -3.49218,2.26563 -5.47265,2.26563 z m 0,0"
         fill="#8ac129"
         id="path3328" /><path
         d="m 329.26953,337.50781 c -1.98047,0 -3.96094,-0.75781 -5.46875,-2.26562 L 176.51953,187.96094 c -3.02344,-3.01953 -3.02344,-7.92188 0,-10.94141 3.01953,-3.02344 7.92188,-3.02344 10.94141,0 l 147.28125,147.27734 c 3.01953,3.02344 3.01953,7.92188 0,10.94532 -1.51172,1.50781 -3.49219,2.26562 -5.47266,2.26562 z m 0,0"
         fill="#ff4c4c"
         id="path3330" /><path
         d="m 349.20703,287.44922 c -1.98047,0 -3.96094,-0.75391 -5.47266,-2.26563 L 226.26953,167.71875 c -3.01953,-3.01953 -3.01953,-7.92187 0,-10.94141 3.02344,-3.02343 7.92188,-3.02343 10.94531,0 l 117.46094,117.46094 c 3.02344,3.02344 3.02344,7.92188 0,10.94531 -1.51172,1.51172 -3.49219,2.26563 -5.46875,2.26563 z m 0,0"
         fill="#8ac129"
         id="path3332" /><path
         d="m 467.11328,165.08984 c -1.98047,0 -3.95703,-0.7539 -5.46875,-2.26562 L 349.78516,50.96875 c -3.01954,-3.023438 -3.01954,-7.921875 0,-10.941406 3.02343,-3.023438 7.92187,-3.023438 10.94531,0 L 472.58594,151.88281 c 3.02343,3.02344 3.02343,7.92188 0,10.94141 -1.51172,1.51172 -3.49219,2.26562 -5.47266,2.26562 z m 0,0"
         fill="#ff4c4c"
         id="path3334" /><path
         d="m 156.85547,475.35156 c -1.98047,0 -3.96094,-0.7539 -5.47266,-2.26562 L 39.523438,361.22656 c -3.019532,-3.01953 -3.019532,-7.91797 0,-10.9414 3.023437,-3.01953 7.921874,-3.01953 10.945312,0 l 111.85937,111.85937 c 3.01954,3.01953 3.01954,7.92188 0,10.94141 -1.51171,1.51172 -3.49218,2.26562 -5.47265,2.26562 z m 0,0"
         fill="#ff4c4c"
         id="path3336" /><path
         d="m 142.32031,325.30859 c -47.640622,-9.00781 -97.22656,-10.4414 -137.324216,29.65235 -6.660156,6.66406 -6.664063,17.46484 0,24.1289 6.664062,6.66407 17.464844,6.66016 24.128906,0 32.511719,-32.51171 73.89453,-27.74218 121.54297,-17.26171 C 147.96875,349.55078 145,337.32031 142.32031,325.30859 Z m 0,0"
         fill="#ffbf14"
         id="path3338" /><path
         d="m 142.32031,325.30859 c -7.09765,-1.34375 -14.23828,-2.51562 -21.38672,-3.41015 2.58594,11.8164 5.41797,23.49609 8.14063,35.60156 7.04297,1.23047 14.24609,2.71094 21.59375,4.32813 -2.71485,-12.34375 -5.66016,-24.47266 -8.34766,-36.51954 z m 0,0"
         fill="#e0a812"
         id="path3340" /><path
         d="m 378.58984,29.625 c 6.66407,-6.664062 6.66407,-17.464844 0,-24.128906 -6.66015,-6.664063 -17.46484,-6.660156 -24.125,0 -95.14453,95.144536 43.1836,237.292966 -34.49609,314.972656 -36.81641,36.82031 -85.01172,25.82812 -140.80469,12.86719 2.85156,12.25781 5.71485,24.60547 8.02735,36.84375 53.35937,11.89453 111.27734,20.04687 156.90625,-25.58203 C 439.48047,249.21094 300.9375,107.27734 378.58984,29.625 Z m 0,0"
         fill="#ffbf14"
         id="path3342" /><path
         d="m 187.19141,370.17969 c 6.38281,1.42187 12.82812,2.79297 19.30859,4.01953 -2.18359,-12.20703 -4.92578,-24.29297 -7.73047,-36.39063 -6.42187,-1.41015 -12.96094,-2.92968 -19.60937,-4.47265 2.85156,12.25 5.70312,24.52343 8.03125,36.84375 z m 0,0"
         fill="#e0a812"
         id="path3344" /><path
         d="m 332.83594,179.66016 c -2.84375,-12.21094 -5.73828,-24.73047 -8.02735,-36.83985 -53.35937,-11.89453 -111.27734,-20.04687 -156.90625,25.58203 -94.941402,94.94532 42.89453,237.58594 -34.49218,314.97266 -6.66407,6.66016 -6.66407,17.46484 0,24.125 6.66406,6.66406 17.46484,6.66406 24.125,0 95.74609,-95.74219 -43.59375,-236.88281 34.49609,-314.96875 36.82031,-36.82031 85.01172,-25.82813 140.80469,-12.87109 z m 0,0"
         fill="#45748c"
         id="path3346" /><path
         d="m 324.80859,142.82031 c -6.53515,-1.45703 -13.13281,-2.85547 -19.77343,-4.10937 2.09765,12.17578 4.78515,24.25781 7.57812,36.34375 6.6211,1.44922 13.36719,3.01172 20.22266,4.60547 -2.84375,-12.21094 -5.73828,-24.73047 -8.02735,-36.83985 z m 0,0"
         fill="#3a6175"
         id="path3348" /><path
         d="m 507.00391,133.91016 c -6.66407,-6.66407 -17.46485,-6.66407 -24.12891,0 -32.51172,32.51171 -73.89453,27.74218 -121.54688,17.26171 2.72657,12.38282 5.66407,24.46094 8.35157,36.51954 52.70312,9.96484 99.42187,8.24609 137.32422,-29.65625 6.66015,-6.66016 6.66015,-17.46485 0,-24.125 z m 0,0"
         fill="#45748c"
         id="path3350" /><path
         d="m 380.23828,155.01953 c -6.18359,-1.12891 -12.49219,-2.4375 -18.91016,-3.84766 2.72657,12.38282 5.66407,24.46094 8.35157,36.51954 6.21875,1.17578 12.46875,2.22265 18.73047,3.0625 -2.53516,-11.5586 -5.48438,-23.75782 -8.17188,-35.73438 z m 0,0"
         fill="#3a6175"
         id="path3352" /></g></g></svg>
